# xmcd CD database file
#
# Track frame offsets:
#	150
#	16145
#	41530
#	51935
#	67160
#	78955
#	90345
#	103545
#	118325
#	133590
#	148065
#	163225
#
# Disc length: 2707 seconds
#
# Revision: 5
# Processed by: cddbd v1.4PL0 Copyright (c) Steve Scherf et al.
# Submitted via: CDex 1.51
#
DISCID=a30a910c
DTITLE=Salsa - Cuba Libre - Audio News Collec
DYEAR=1900
DGENRE=Salsa
TTITLE0=Flores Para Su Altar
TTITLE1=La Expresiva
TTITLE2=Creeme
TTITLE3=Amante como si fuera Nueva
TTITLE4=Yo sigo siendo Cubano
TTITLE5=Ay amor
TTITLE6=La Guarapachanga
TTITLE7=La Gloria eres Tu
TTITLE8=Para que no te vayas
TTITLE9=No puedo ser Feliz
TTITLE10=Quitate el Chaqueton
TTITLE11=Nueva Cubana
EXTD=
EXTT0=
EXTT1=
EXTT2=
EXTT3=
EXTT4=
EXTT5=
EXTT6=
EXTT7=
EXTT8=
EXTT9=
EXTT10=
EXTT11=
PLAYORDER=
